<mxfile host="app.diagrams.net" agent="Mozilla/5.0 (Windows NT 10.0; Win64; x64) AppleWebKit/537.36 (KHTML, like Gecko) Chrome/124.0.0.0 Safari/537.36" version="25.0.1">
  <diagram name="Page-1" id="2YBvvXClWsGukQMizWep">
    <mxGraphModel dx="1354" dy="677" grid="1" gridSize="10" guides="1" tooltips="1" connect="1" arrows="1" fold="1" page="1" pageScale="1" pageWidth="850" pageHeight="1100" math="0" shadow="0">
      <root>
        <mxCell id="0" />
        <mxCell id="1" parent="0" />
        <mxCell id="xYsVv7YhA87qD6ey79V8-38" value="" style="rounded=0;whiteSpace=wrap;html=1;" vertex="1" parent="1">
          <mxGeometry x="53" y="60" width="427" height="520" as="geometry" />
        </mxCell>
        <mxCell id="xYsVv7YhA87qD6ey79V8-1" value="Professor" style="shape=umlActor;verticalLabelPosition=bottom;verticalAlign=top;html=1;outlineConnect=0;" vertex="1" parent="1">
          <mxGeometry x="70" y="80" width="30" height="60" as="geometry" />
        </mxCell>
        <mxCell id="xYsVv7YhA87qD6ey79V8-2" value="" style="endArrow=none;dashed=1;html=1;rounded=0;" edge="1" parent="1" source="xYsVv7YhA87qD6ey79V8-4">
          <mxGeometry width="50" height="50" relative="1" as="geometry">
            <mxPoint x="80" y="814.4443969726562" as="sourcePoint" />
            <mxPoint x="80" y="170" as="targetPoint" />
          </mxGeometry>
        </mxCell>
        <mxCell id="xYsVv7YhA87qD6ey79V8-5" value="" style="endArrow=none;dashed=1;html=1;rounded=0;" edge="1" parent="1" target="xYsVv7YhA87qD6ey79V8-4">
          <mxGeometry width="50" height="50" relative="1" as="geometry">
            <mxPoint x="80" y="570" as="sourcePoint" />
            <mxPoint x="80" y="170" as="targetPoint" />
          </mxGeometry>
        </mxCell>
        <mxCell id="xYsVv7YhA87qD6ey79V8-11" style="edgeStyle=orthogonalEdgeStyle;rounded=0;orthogonalLoop=1;jettySize=auto;html=1;entryX=0;entryY=0.5;entryDx=0;entryDy=0;" edge="1" parent="1">
          <mxGeometry relative="1" as="geometry">
            <mxPoint x="85" y="198" as="sourcePoint" />
            <mxPoint x="198" y="198" as="targetPoint" />
          </mxGeometry>
        </mxCell>
        <mxCell id="xYsVv7YhA87qD6ey79V8-36" style="edgeStyle=orthogonalEdgeStyle;rounded=0;orthogonalLoop=1;jettySize=auto;html=1;entryX=0;entryY=0.5;entryDx=0;entryDy=0;" edge="1" parent="1" source="xYsVv7YhA87qD6ey79V8-4" target="xYsVv7YhA87qD6ey79V8-9">
          <mxGeometry relative="1" as="geometry" />
        </mxCell>
        <mxCell id="xYsVv7YhA87qD6ey79V8-37" value="Criar turma" style="edgeLabel;html=1;align=center;verticalAlign=middle;resizable=0;points=[];" vertex="1" connectable="0" parent="xYsVv7YhA87qD6ey79V8-36">
          <mxGeometry x="0.1758" y="1" relative="1" as="geometry">
            <mxPoint x="-11" y="-9" as="offset" />
          </mxGeometry>
        </mxCell>
        <mxCell id="xYsVv7YhA87qD6ey79V8-4" value="" style="rounded=0;whiteSpace=wrap;html=1;" vertex="1" parent="1">
          <mxGeometry x="75" y="180" width="10" height="340" as="geometry" />
        </mxCell>
        <mxCell id="xYsVv7YhA87qD6ey79V8-6" value="" style="ellipse;shape=umlEntity;whiteSpace=wrap;html=1;" vertex="1" parent="1">
          <mxGeometry x="188" y="90" width="30" height="30" as="geometry" />
        </mxCell>
        <mxCell id="xYsVv7YhA87qD6ey79V8-8" value="" style="endArrow=none;dashed=1;html=1;rounded=0;" edge="1" parent="1">
          <mxGeometry width="50" height="50" relative="1" as="geometry">
            <mxPoint x="204" y="570" as="sourcePoint" />
            <mxPoint x="204" y="170" as="targetPoint" />
          </mxGeometry>
        </mxCell>
        <mxCell id="xYsVv7YhA87qD6ey79V8-16" style="edgeStyle=orthogonalEdgeStyle;rounded=0;orthogonalLoop=1;jettySize=auto;html=1;entryX=0.094;entryY=0.181;entryDx=0;entryDy=0;entryPerimeter=0;" edge="1" parent="1">
          <mxGeometry relative="1" as="geometry">
            <mxPoint x="335.94000000000005" y="338.1" as="targetPoint" />
            <mxPoint x="208" y="337" as="sourcePoint" />
            <Array as="points">
              <mxPoint x="208" y="338" />
            </Array>
          </mxGeometry>
        </mxCell>
        <mxCell id="xYsVv7YhA87qD6ey79V8-25" value="doFilterInternal(&lt;div&gt;request,&lt;/div&gt;&lt;div&gt;response,&lt;/div&gt;&lt;div&gt;filterChain&lt;/div&gt;&lt;div&gt;)&lt;/div&gt;" style="edgeLabel;html=1;align=center;verticalAlign=middle;resizable=0;points=[];" vertex="1" connectable="0" parent="xYsVv7YhA87qD6ey79V8-16">
          <mxGeometry x="-0.1775" y="4" relative="1" as="geometry">
            <mxPoint x="-8" y="-35" as="offset" />
          </mxGeometry>
        </mxCell>
        <mxCell id="xYsVv7YhA87qD6ey79V8-20" style="edgeStyle=orthogonalEdgeStyle;rounded=0;orthogonalLoop=1;jettySize=auto;html=1;" edge="1" parent="1">
          <mxGeometry relative="1" as="geometry">
            <mxPoint x="440" y="199" as="targetPoint" />
            <mxPoint x="208" y="199" as="sourcePoint" />
          </mxGeometry>
        </mxCell>
        <mxCell id="xYsVv7YhA87qD6ey79V8-21" value="findUser(email,password)" style="edgeLabel;html=1;align=center;verticalAlign=middle;resizable=0;points=[];" vertex="1" connectable="0" parent="xYsVv7YhA87qD6ey79V8-20">
          <mxGeometry x="-0.205" y="2" relative="1" as="geometry">
            <mxPoint y="-7" as="offset" />
          </mxGeometry>
        </mxCell>
        <mxCell id="xYsVv7YhA87qD6ey79V8-30" style="edgeStyle=orthogonalEdgeStyle;rounded=0;orthogonalLoop=1;jettySize=auto;html=1;" edge="1" parent="1">
          <mxGeometry relative="1" as="geometry">
            <mxPoint x="440.0000000000001" y="450" as="targetPoint" />
            <mxPoint x="208" y="450.0000000000001" as="sourcePoint" />
          </mxGeometry>
        </mxCell>
        <mxCell id="xYsVv7YhA87qD6ey79V8-31" value="register(Turma,idProfessor)" style="edgeLabel;html=1;align=center;verticalAlign=middle;resizable=0;points=[];" vertex="1" connectable="0" parent="xYsVv7YhA87qD6ey79V8-30">
          <mxGeometry x="-0.2203" y="3" relative="1" as="geometry">
            <mxPoint y="-7" as="offset" />
          </mxGeometry>
        </mxCell>
        <mxCell id="xYsVv7YhA87qD6ey79V8-10" value="Tela de login" style="text;html=1;align=center;verticalAlign=middle;whiteSpace=wrap;rounded=0;" vertex="1" parent="1">
          <mxGeometry x="173" y="130" width="60" height="30" as="geometry" />
        </mxCell>
        <mxCell id="xYsVv7YhA87qD6ey79V8-12" value="" style="ellipse;shape=umlEntity;whiteSpace=wrap;html=1;" vertex="1" parent="1">
          <mxGeometry x="325" y="90" width="30" height="30" as="geometry" />
        </mxCell>
        <mxCell id="xYsVv7YhA87qD6ey79V8-13" value="Autenticador" style="text;html=1;align=center;verticalAlign=middle;whiteSpace=wrap;rounded=0;" vertex="1" parent="1">
          <mxGeometry x="310" y="130" width="60" height="30" as="geometry" />
        </mxCell>
        <mxCell id="xYsVv7YhA87qD6ey79V8-14" value="" style="endArrow=none;dashed=1;html=1;rounded=0;" edge="1" parent="1">
          <mxGeometry width="50" height="50" relative="1" as="geometry">
            <mxPoint x="341" y="570" as="sourcePoint" />
            <mxPoint x="341" y="170" as="targetPoint" />
          </mxGeometry>
        </mxCell>
        <mxCell id="xYsVv7YhA87qD6ey79V8-15" value="" style="rounded=0;whiteSpace=wrap;html=1;" vertex="1" parent="1">
          <mxGeometry x="335" y="283" width="10" height="100" as="geometry" />
        </mxCell>
        <mxCell id="xYsVv7YhA87qD6ey79V8-17" value="" style="shape=umlBoundary;whiteSpace=wrap;html=1;" vertex="1" parent="1">
          <mxGeometry x="425" y="90" width="37.5" height="30" as="geometry" />
        </mxCell>
        <mxCell id="xYsVv7YhA87qD6ey79V8-18" value="" style="endArrow=none;dashed=1;html=1;rounded=0;" edge="1" parent="1" source="xYsVv7YhA87qD6ey79V8-28">
          <mxGeometry width="50" height="50" relative="1" as="geometry">
            <mxPoint x="444.75" y="814.4443969726562" as="sourcePoint" />
            <mxPoint x="444.75" y="170" as="targetPoint" />
          </mxGeometry>
        </mxCell>
        <mxCell id="xYsVv7YhA87qD6ey79V8-19" value="" style="rounded=0;whiteSpace=wrap;html=1;" vertex="1" parent="1">
          <mxGeometry x="439.75" y="179" width="10" height="100" as="geometry" />
        </mxCell>
        <mxCell id="xYsVv7YhA87qD6ey79V8-22" value="professor" style="html=1;verticalAlign=bottom;endArrow=open;dashed=1;endSize=8;curved=0;rounded=0;exitX=0;exitY=0.5;exitDx=0;exitDy=0;" edge="1" parent="1" source="xYsVv7YhA87qD6ey79V8-19">
          <mxGeometry relative="1" as="geometry">
            <mxPoint x="370" y="229.5" as="sourcePoint" />
            <mxPoint x="210" y="229" as="targetPoint" />
          </mxGeometry>
        </mxCell>
        <mxCell id="xYsVv7YhA87qD6ey79V8-26" value="request" style="html=1;verticalAlign=bottom;endArrow=open;dashed=1;endSize=8;curved=0;rounded=0;entryX=1.323;entryY=0.565;entryDx=0;entryDy=0;entryPerimeter=0;" edge="1" parent="1" target="xYsVv7YhA87qD6ey79V8-9">
          <mxGeometry relative="1" as="geometry">
            <mxPoint x="330" y="370" as="sourcePoint" />
            <mxPoint x="245" y="370" as="targetPoint" />
          </mxGeometry>
        </mxCell>
        <mxCell id="xYsVv7YhA87qD6ey79V8-29" value="" style="endArrow=none;dashed=1;html=1;rounded=0;" edge="1" parent="1" target="xYsVv7YhA87qD6ey79V8-28">
          <mxGeometry width="50" height="50" relative="1" as="geometry">
            <mxPoint x="445" y="570" as="sourcePoint" />
            <mxPoint x="444.75" y="170" as="targetPoint" />
          </mxGeometry>
        </mxCell>
        <mxCell id="xYsVv7YhA87qD6ey79V8-28" value="" style="rounded=0;whiteSpace=wrap;html=1;" vertex="1" parent="1">
          <mxGeometry x="439.75" y="420" width="10" height="100" as="geometry" />
        </mxCell>
        <mxCell id="xYsVv7YhA87qD6ey79V8-32" value="Turma" style="html=1;verticalAlign=bottom;endArrow=open;dashed=1;endSize=8;curved=0;rounded=0;exitX=-0.075;exitY=0.689;exitDx=0;exitDy=0;exitPerimeter=0;entryX=1.323;entryY=0.914;entryDx=0;entryDy=0;entryPerimeter=0;" edge="1" parent="1" source="xYsVv7YhA87qD6ey79V8-28" target="xYsVv7YhA87qD6ey79V8-9">
          <mxGeometry relative="1" as="geometry">
            <mxPoint x="345" y="490" as="sourcePoint" />
            <mxPoint x="265" y="490" as="targetPoint" />
          </mxGeometry>
        </mxCell>
        <mxCell id="xYsVv7YhA87qD6ey79V8-33" value="Banco de dados" style="text;html=1;align=center;verticalAlign=middle;whiteSpace=wrap;rounded=0;" vertex="1" parent="1">
          <mxGeometry x="414.75" y="130" width="60" height="30" as="geometry" />
        </mxCell>
        <mxCell id="xYsVv7YhA87qD6ey79V8-34" value="Login sucesso" style="html=1;verticalAlign=bottom;endArrow=open;dashed=1;endSize=8;curved=0;rounded=0;entryX=1.323;entryY=0.565;entryDx=0;entryDy=0;entryPerimeter=0;" edge="1" parent="1">
          <mxGeometry relative="1" as="geometry">
            <mxPoint x="200" y="285" as="sourcePoint" />
            <mxPoint x="85" y="285" as="targetPoint" />
          </mxGeometry>
        </mxCell>
        <mxCell id="xYsVv7YhA87qD6ey79V8-9" value="" style="rounded=0;whiteSpace=wrap;html=1;" vertex="1" parent="1">
          <mxGeometry x="198" y="180" width="10" height="340" as="geometry" />
        </mxCell>
        <mxCell id="xYsVv7YhA87qD6ey79V8-35" value="Turma criada" style="html=1;verticalAlign=bottom;endArrow=open;dashed=1;endSize=8;curved=0;rounded=0;entryX=1.323;entryY=0.565;entryDx=0;entryDy=0;entryPerimeter=0;" edge="1" parent="1">
          <mxGeometry relative="1" as="geometry">
            <mxPoint x="200" y="488" as="sourcePoint" />
            <mxPoint x="85" y="488" as="targetPoint" />
          </mxGeometry>
        </mxCell>
      </root>
    </mxGraphModel>
  </diagram>
</mxfile>
